<svg width="29" height="30" viewBox="0 0 29 30" fill="none" xmlns="http://www.w3.org/2000/svg">
<g clip-path="url(#clip0_245_3919)">
<path d="M19.1992 25.8001V23.4001C19.1992 22.1271 18.6935 20.9062 17.7933 20.006C16.8932 19.1058 15.6723 18.6001 14.3992 18.6001H5.99922C4.72618 18.6001 3.50528 19.1058 2.60511 20.006C1.70493 20.9062 1.19922 22.1271 1.19922 23.4001V25.8001" stroke="#2075F3" stroke-width="2" stroke-linecap="round" stroke-linejoin="round"/>
<path d="M10.2004 13.8002C12.8514 13.8002 15.0004 11.6512 15.0004 9.0002C15.0004 6.34923 12.8514 4.2002 10.2004 4.2002C7.54942 4.2002 5.40039 6.34923 5.40039 9.0002C5.40039 11.6512 7.54942 13.8002 10.2004 13.8002Z" stroke="#2075F3" stroke-width="2" stroke-linecap="round" stroke-linejoin="round"/>
<path d="M24 10.2002V17.4002" stroke="#2075F3" stroke-width="2" stroke-linecap="round" stroke-linejoin="round"/>
<path d="M27.6004 13.8H20.4004" stroke="#2075F3" stroke-width="2" stroke-linecap="round" stroke-linejoin="round"/>
</g>
<defs>
<clipPath id="clip0_245_3919">
<rect width="28.8" height="28.8" fill="white" transform="translate(0 0.600098)"/>
</clipPath>
</defs>
</svg>
