<svg width="30" height="31" viewBox="0 0 30 31" fill="none" xmlns="http://www.w3.org/2000/svg">
<path d="M2.08398 7.5835H27.9173V23.4168H2.08398V7.5835Z" fill="white"/>
<path d="M2.08398 7.5835H27.9173V9.66683H2.08398V7.5835ZM2.08398 11.3335H27.9173V13.0002H2.08398V11.3335ZM2.08398 14.6668H27.9173V16.3335H2.08398V14.6668Z" fill="#D22F27"/>
<path d="M2.08398 7.5835H15.4173V16.3335H2.08398V7.5835Z" fill="#1E50A0"/>
<path d="M2.08398 18H27.9173V19.6667H2.08398V18Z" fill="#D22F27"/>
<path d="M3.95768 10.3958C4.36039 10.3958 4.68685 10.0694 4.68685 9.66667C4.68685 9.26396 4.36039 8.9375 3.95768 8.9375C3.55497 8.9375 3.22852 9.26396 3.22852 9.66667C3.22852 10.0694 3.55497 10.3958 3.95768 10.3958Z" fill="white"/>
<path d="M7.29167 10.3958C7.69437 10.3958 8.02083 10.0694 8.02083 9.66667C8.02083 9.26396 7.69437 8.9375 7.29167 8.9375C6.88896 8.9375 6.5625 9.26396 6.5625 9.66667C6.5625 10.0694 6.88896 10.3958 7.29167 10.3958Z" fill="white"/>
<path d="M10.6257 10.3958C11.0284 10.3958 11.3548 10.0694 11.3548 9.66667C11.3548 9.26396 11.0284 8.9375 10.6257 8.9375C10.2229 8.9375 9.89648 9.26396 9.89648 9.66667C9.89648 10.0694 10.2229 10.3958 10.6257 10.3958Z" fill="white"/>
<path d="M13.9577 10.3958C14.3604 10.3958 14.6868 10.0694 14.6868 9.66667C14.6868 9.26396 14.3604 8.9375 13.9577 8.9375C13.555 8.9375 13.2285 9.26396 13.2285 9.66667C13.2285 10.0694 13.555 10.3958 13.9577 10.3958Z" fill="white"/>
<path d="M12.2917 12.0623C12.6944 12.0623 13.0208 11.7359 13.0208 11.3332C13.0208 10.9305 12.6944 10.604 12.2917 10.604C11.889 10.604 11.5625 10.9305 11.5625 11.3332C11.5625 11.7359 11.889 12.0623 12.2917 12.0623Z" fill="white"/>
<path d="M8.95768 12.0623C9.36039 12.0623 9.68685 11.7359 9.68685 11.3332C9.68685 10.9305 9.36039 10.604 8.95768 10.604C8.55497 10.604 8.22852 10.9305 8.22852 11.3332C8.22852 11.7359 8.55497 12.0623 8.95768 12.0623Z" fill="white"/>
<path d="M5.62565 12.0623C6.02836 12.0623 6.35482 11.7359 6.35482 11.3332C6.35482 10.9305 6.02836 10.604 5.62565 10.604C5.22294 10.604 4.89648 10.9305 4.89648 11.3332C4.89648 11.7359 5.22294 12.0623 5.62565 12.0623Z" fill="white"/>
<path d="M3.95768 13.7293C4.36039 13.7293 4.68685 13.4029 4.68685 13.0002C4.68685 12.5975 4.36039 12.271 3.95768 12.271C3.55497 12.271 3.22852 12.5975 3.22852 13.0002C3.22852 13.4029 3.55497 13.7293 3.95768 13.7293Z" fill="white"/>
<path d="M7.29167 13.7293C7.69437 13.7293 8.02083 13.4029 8.02083 13.0002C8.02083 12.5975 7.69437 12.271 7.29167 12.271C6.88896 12.271 6.5625 12.5975 6.5625 13.0002C6.5625 13.4029 6.88896 13.7293 7.29167 13.7293Z" fill="white"/>
<path d="M10.6257 13.7293C11.0284 13.7293 11.3548 13.4029 11.3548 13.0002C11.3548 12.5975 11.0284 12.271 10.6257 12.271C10.2229 12.271 9.89648 12.5975 9.89648 13.0002C9.89648 13.4029 10.2229 13.7293 10.6257 13.7293Z" fill="white"/>
<path d="M13.9577 13.7293C14.3604 13.7293 14.6868 13.4029 14.6868 13.0002C14.6868 12.5975 14.3604 12.271 13.9577 12.271C13.555 12.271 13.2285 12.5975 13.2285 13.0002C13.2285 13.4029 13.555 13.7293 13.9577 13.7293Z" fill="white"/>
<path d="M12.2917 15.3958C12.6944 15.3958 13.0208 15.0694 13.0208 14.6667C13.0208 14.264 12.6944 13.9375 12.2917 13.9375C11.889 13.9375 11.5625 14.264 11.5625 14.6667C11.5625 15.0694 11.889 15.3958 12.2917 15.3958Z" fill="white"/>
<path d="M8.95768 15.3958C9.36039 15.3958 9.68685 15.0694 9.68685 14.6667C9.68685 14.264 9.36039 13.9375 8.95768 13.9375C8.55497 13.9375 8.22852 14.264 8.22852 14.6667C8.22852 15.0694 8.55497 15.3958 8.95768 15.3958Z" fill="white"/>
<path d="M5.62565 15.3958C6.02836 15.3958 6.35482 15.0694 6.35482 14.6667C6.35482 14.264 6.02836 13.9375 5.62565 13.9375C5.22294 13.9375 4.89648 14.264 4.89648 14.6667C4.89648 15.0694 5.22294 15.3958 5.62565 15.3958Z" fill="white"/>
<path d="M2.08398 21.3335H27.9173V23.4168H2.08398V21.3335Z" fill="#D22F27"/>
</svg>
